<svg width="42" height="42" viewBox="0 0 42 42" fill="none" xmlns="http://www.w3.org/2000/svg">
<g id="telegram-svgrepo-com 1">
<rect width="42" height="42" fill="white"/>
<path id="Vector" d="M29.0351 13.1775C29.0429 13.1775 29.0534 13.1775 29.0639 13.1775C29.3382 13.1775 29.5929 13.2628 29.8016 13.4098L29.7976 13.4072C29.9499 13.5398 30.0522 13.7261 30.0772 13.9361V13.9401C30.1034 14.1002 30.1179 14.2839 30.1179 14.4716C30.1179 14.5569 30.1152 14.6409 30.1087 14.7249V14.7131C29.8134 17.8224 28.5324 25.3627 27.8814 28.8435C27.6057 30.3174 27.0637 30.8109 26.5387 30.8582C25.3981 30.9645 24.5319 30.1048 23.4267 29.3803C21.6969 28.245 20.7191 27.5389 19.0404 26.4324C17.0992 25.1554 18.3579 24.4506 19.463 23.3034C19.7531 23.0016 24.7812 18.4275 24.8797 18.0128C24.8849 17.9878 24.8876 17.9602 24.8876 17.9314C24.8876 17.829 24.8495 17.7358 24.7878 17.6649C24.7196 17.6203 24.6342 17.5954 24.545 17.5954C24.4859 17.5954 24.4295 17.6072 24.377 17.6269L24.3796 17.6256C24.2064 17.6649 21.4431 19.4911 16.0899 23.1039C15.5058 23.5646 14.7682 23.856 13.9649 23.8901H13.9571C12.8191 23.7523 11.7862 23.499 10.8057 23.1381L10.9029 23.1696C9.67175 22.7679 8.69393 22.5566 8.77793 21.8767C8.82256 21.5232 9.30993 21.1614 10.2401 20.7913C15.9696 18.2949 19.7902 16.6495 21.7021 15.855C23.8113 14.7354 26.2565 13.8141 28.8277 13.2169L29.0337 13.1762L29.0351 13.1775ZM20.9081 1.34531C10.0117 1.37156 1.18774 10.2112 1.18774 21.1116C1.18774 32.0276 10.0366 40.8778 20.954 40.8778C31.8714 40.8778 40.7202 32.0289 40.7202 21.1116C40.7202 10.2112 31.8963 1.37156 21.0026 1.34531H20.9999C20.9693 1.34531 20.9387 1.34531 20.9081 1.34531Z" fill="#001167"/>
</g>
</svg>
