<svg width="42" height="42" viewBox="0 0 42 42" fill="none" xmlns="http://www.w3.org/2000/svg">
<g id="twitter-154-svgrepo-com 1">
<rect width="42" height="42" fill="white"/>
<g id="Page-1">
<g id="Dribbble-Light-Preview">
<g id="icons">
<path id="twitter-[#154]" fill-rule="evenodd" clip-rule="evenodd" d="M13.209 37.7996C29.0577 37.7996 37.7265 24.871 37.7265 13.6609C37.7265 13.2928 37.7265 12.9276 37.7013 12.5637C39.3876 11.3645 40.8429 9.87558 42 8.17193C40.4292 8.85836 38.7597 9.30852 37.0524 9.50699C38.85 8.44634 40.1961 6.78001 40.8408 4.81378C39.1482 5.80206 37.2981 6.49955 35.3682 6.87379C32.1048 3.4582 26.6469 3.29272 23.1756 6.50567C20.9391 8.57734 19.9878 11.6662 20.6829 14.6124C13.755 14.2692 7.2996 11.048 2.9232 5.74893C0.6363 9.62556 1.806 14.583 5.5923 17.0723C4.221 17.033 2.8791 16.6695 1.68 16.0121V16.1197C1.6821 20.1577 4.5738 23.6345 8.5932 24.4346C7.3248 24.7758 5.9934 24.8252 4.704 24.5792C5.8317 28.0361 9.0678 30.4039 12.7533 30.4721C9.702 32.8333 5.9325 34.1154 2.0517 34.1112C1.3671 34.1092 0.6825 34.0698 0 33.9892C3.9417 36.4785 8.526 37.7996 13.209 37.7934" fill="#001167"/>
</g>
</g>
</g>
</g>
</svg>
