<svg width="42" height="42" viewBox="0 0 42 42" fill="none" xmlns="http://www.w3.org/2000/svg">
<g id="youtube-168-svgrepo-com 1" clip-path="url(#clip0_9_50)">
<rect width="42" height="42" fill="white"/>
<g id="Page-1">
<g id="Dribbble-Light-Preview">
<g id="icons">
<path id="youtube-[#168]" fill-rule="evenodd" clip-rule="evenodd" d="M16.7757 26.4308V14.646C20.9594 16.6146 24.1995 18.5163 28.0318 20.5666C24.871 22.3195 20.9594 24.2863 16.7757 26.4308ZM40.0911 8.7849C39.3694 7.8341 38.1395 7.09399 36.83 6.84896C32.981 6.11805 8.96907 6.11597 5.12222 6.84896C4.07213 7.04581 3.13706 7.52164 2.3338 8.26092C-1.05076 11.4023 0.00979898 28.2486 0.825609 30.9774C1.16867 32.1586 1.61215 33.0104 2.17067 33.5696C2.89025 34.3089 3.87548 34.8179 5.00715 35.0462C8.17625 35.7017 24.5029 36.0682 36.763 35.1446C37.8926 34.9478 38.8925 34.4223 39.6811 33.6516C42.8104 30.5228 42.5971 12.7305 40.0911 8.7849Z" fill="#001167"/>
</g>
</g>
</g>
</g>
<defs>
<clipPath id="clip0_9_50">
<rect width="42" height="42" fill="white"/>
</clipPath>
</defs>
</svg>
